# xmcd
#
# Track frame offsets: 
#        150
#        10712
#        21217
#        32985
#        45342
#        55655
#        67707
#        80560
#        92665
#        103895
#        117990
#        127380
#
# Disc length: 1865 seconds
#
# Revision: 0
# Processed by: cddbd v1.5PL3 Copyright (c) Steve Scherf et al.
# Submitted via: ExactAudioCopy v0.95a5
#
DISCID=9707470c
DTITLE=Boxcar Willie - Achy Breaky Heart
DYEAR=1995
DGENRE=Country
TTITLE0=Rockin' Bones
TTITLE1=Sally Let Your Bangs Hang Down
TTITLE2=Train Of Love
TTITLE3=Mabelline
TTITLE4=Thats All Right
TTITLE5=Sixteen Chickens and a Tambourine
TTITLE6=Mystery Train
TTITLE7=Pipeliner Blues
TTITLE8=No Help Wanted
TTITLE9=Haunted House
TTITLE10=Hank, You're Like Your Daddy
TTITLE11=Achy Breaky Heart
EXTD=
EXTT0=
EXTT1=
EXTT2=
EXTT3=
EXTT4=
EXTT5=
EXTT6=
EXTT7=
EXTT8=
EXTT9=
EXTT10=
EXTT11=
PLAYORDER=
